<?xml version="1.0" encoding="utf-8"?>
<!-- Generator: Adobe Illustrator 25.2.1, SVG Export Plug-In . SVG Version: 6.00 Build 0)  -->
<svg version="1.1" id="Layer_1" xmlns="http://www.w3.org/2000/svg" xmlns:xlink="http://www.w3.org/1999/xlink" x="0px" y="0px"
	 viewBox="0 0 437.4 111.1" style="enable-background:new 0 0 437.4 111.1;" xml:space="preserve">
<g id="Layer_2_1_">
	<path d="M0,0v111.1h111.1V0H0z M103.7,56c-0.5,0.9-1,1.8-1.5,2.7c-0.6,1.4-2.1,2.2-3.5,2c-0.6,0-1.1,0.2-1.6,0.5
		c-1.4,0.9-2.8,1.8-4.2,2.6c-2,1.1-4.3,1.2-6.3,0.3c-3.4-1.3-7-2-10.6-2c-3.7-0.1-7.2,1.5-9.5,4.3c-0.9,1.3-1.7,2.8-2.1,4.3
		c-1.2,3.1-2.3,21.4-2.3,26.1c0,0-17.6-3.4-34.2-20.3l4.3-11.3H18.8l9.8-10.3H11.7l9.8-10.3h-16l17.8-18.8
		c5.4-5.4,12.3-9.1,19.8-10.8c7.1-1.2,8.9-0.5,13.3,0.8l2.4,0.7l0.8,0.2l3.1,1c2,0.5,4.2,0.6,6.2,0.1c2.8-0.7,5.7-0.4,8.2,1
		c2.3,1.3,3.8,3.6,4.1,6.2c0.3,2.3,1.6,4.3,3.6,5.5c3,1.6,6.1,3,9.3,4.1c2.3,0.9,4.5,1.8,6.8,2.7c1.1,0.4,2.1,1.1,2.9,2.1
		c0.6,0.8,1,1.7,1.1,2.7c0.1,2,0.4,4,0.5,6l0,0C105.6,50.7,105,53.5,103.7,56L103.7,56z"/>
	<path d="M313,31.3c-1.8-0.1-3.5,0.7-4.5,2.1c-1,1.2-1.6,2.8-1.7,4.4v2.4c0,1.7,0.6,3.3,1.7,4.5c1.1,1.2,2.7,1.9,4.3,1.8
		c1.8,0.1,3.6-0.8,4.6-2.3c1.1-1.7,1.6-3.6,1.5-5.5c0.1-2-0.5-3.9-1.7-5.5C316.1,31.9,314.6,31.2,313,31.3z"/>
	<path d="M380.2,31.2c-1.8-0.1-3.6,0.7-4.7,2.2c-1.1,1.6-1.7,3.5-1.6,5.5c-0.1,1.9,0.5,3.8,1.6,5.4c1.1,1.5,2.9,2.4,4.7,2.2
		c1.8,0.1,3.6-0.7,4.7-2.2c1.2-1.6,1.8-3.6,1.7-5.6c0.1-2-0.5-4-1.7-5.5C383.7,31.9,382,31.1,380.2,31.2z"/>
	<path d="M292.3,33c-0.9-1.3-2.4-2.1-4-1.9c-1.5-0.1-3,0.5-3.9,1.7c-0.9,1.2-1.4,2.7-1.6,4.2h10.5C293.5,35.6,293.1,34.2,292.3,33z"
		/>
	<path d="M350.6,22.4h-5.7v23.3h5.7c3.6,0,6.4-1,8.4-3c1.9-2,2.9-4.9,2.9-8.7c0-3.6-1-6.5-2.9-8.5S354.3,22.4,350.6,22.4z"/>
	<path d="M114.4,0v70.8h323V0H114.4z M156.6,22.4h-4v23.2h3.7v3.7h-11.2v-3.7h3.3V28.4h-0.2l-9.6,19.1h-2.1l-10-19.4h-0.2v17.5h3.4
		v3.7h-11.1v-3.7h3.7V22.4h-4v-3.7h7.7l11.7,22.6h0.2l11.2-22.6h7.7L156.6,22.4z M185.7,45.1c-2.7,2.9-6.5,4.3-11.4,4.3h-14.1v-3.7
		h3.7V22.4h-3.7v-3.7h13.8c5.1,0,8.9,1.4,11.7,4.3c2.7,3,4.2,6.9,4,11C190,38.1,188.5,42.1,185.7,45.1L185.7,45.1z M224.6,22.4H221
		v27h-2.6l-17.4-22.8h-0.2v19h4.7v3.7h-12.2v-3.7h3.5V22.4h-4v-3.7h7.1l16.9,22.1h0.2V22.4h-4.6v-3.7h12.3L224.6,22.4z M268.4,49.4
		h-3.3l-7.8-23.2h-0.2l-7.5,23.2h-3.4l-8.8-27h-2.6v-3.7h11.1v3.7H242l5.9,19.9h0.2l6.6-19.9h-2.8v-3.7h11v3.7h-2.8l6.6,20.1h0.2
		l5.4-20.1h-4.1v-3.7h11v3.7h-2.5L268.4,49.4z M295.1,47.9c-1.8,1.4-4.1,2.1-6.4,2c-2.7,0.1-5.4-0.9-7.4-2.7
		c-1.9-1.8-2.8-4.5-2.8-7.9c-0.1-2.9,0.8-5.8,2.6-8.1c1.8-2.2,4.5-3.3,7.3-3.2c2.5-0.1,5,0.8,6.8,2.7c1.6,1.8,2.5,4.1,2.5,6.5
		c0,0.9-0.1,1.8-0.3,2.7h-14.5c0.2,4.5,2.3,6.7,6.2,6.7c1.3,0.1,2.7-0.3,3.7-1.2c0.8-0.8,1.4-1.7,1.7-2.8l3.5,0.7
		C297.6,45.1,296.6,46.8,295.1,47.9L295.1,47.9z M320.9,46.3c-1.5,2.4-3.9,3.6-7.2,3.6s-5.8-1.3-7.2-3.9c0,0.2-0.1,0.8-0.2,1.7
		c-0.1,0.9-0.2,1.4-0.2,1.7h-4.2c0.2-1,0.3-2,0.5-3.1c0.2-1,0.2-2.1,0.2-3.2v-23h-3.4v-3.3h7.5v15.6c0.6-1.3,1.6-2.4,2.7-3.3
		c1.4-1,3-1.5,4.7-1.4c2.5-0.1,4.8,1,6.5,2.8c1.7,1.8,2.5,4.4,2.5,7.7C323.2,41.2,322.4,43.9,320.9,46.3L320.9,46.3z M362.3,45.2
		c-2.7,2.9-6.5,4.3-11.4,4.3h-14.1v-3.7h3.7V22.4h-3.7v-3.7h13.8c5.1,0,8.9,1.4,11.7,4.3c2.7,3,4.2,6.9,4.1,11
		C366.6,38.1,365.1,42.1,362.3,45.2L362.3,45.2z M387.9,46.8c-2.1,2.1-5,3.2-7.9,3.1c-2.9,0.1-5.6-1-7.6-3c-1.9-2.1-2.9-5-2.8-7.8
		c-0.1-2.9,0.9-5.7,2.7-7.9c1.8-2.2,4.5-3.3,8-3.3c3.5,0,6.2,1.1,8,3.3c1.8,2.2,2.7,4.9,2.6,7.8C391.1,41.8,390,44.7,387.9,46.8
		L387.9,46.8z M410.6,47.4c-1.4,1.7-3.6,2.5-6.7,2.5c-2.7,0.1-5.3-0.9-7.1-2.8c-1.8-1.8-2.7-4.5-2.7-7.9c-0.1-2.9,0.9-5.7,2.7-8
		c1.8-2.2,4.6-3.4,7.5-3.3c1.3,0,2.6,0.2,3.8,0.5c1.3,0.3,2.4,0.9,3.5,1.7l0.9,5.5L409,36l-0.8-3.5c-1.3-0.7-2.7-1-4.1-1
		c-1.7-0.1-3.4,0.7-4.4,2.1c-1,1.7-1.5,3.6-1.4,5.6c-0.1,1.9,0.4,3.8,1.5,5.4c1.1,1.4,2.7,2.1,4.4,2c2.9,0,4.7-1.7,5.2-5.1l3.5,0.7
		C412.7,44.1,411.9,45.9,410.6,47.4L410.6,47.4z M431,48.2c-2,1.2-4.3,1.8-6.6,1.8c-2.9,0.1-5.8-0.6-8.3-2.1l0.7-5.2l3.3,0.3
		l-0.1,2.7c0.6,0.3,1.3,0.5,2.1,0.7c0.7,0.1,1.5,0.2,2.2,0.2c1.3,0,2.5-0.2,3.7-0.8c1-0.4,1.6-1.3,1.6-2.4c0.1-0.9-0.5-1.8-1.3-2.2
		c-1-0.5-2.1-0.8-3.3-1c-1.3-0.2-2.6-0.5-3.9-0.8c-1.2-0.3-2.3-0.9-3.2-1.7c-1-1-1.4-2.3-1.3-3.7c0-2.4,0.9-4,2.6-4.9
		c1.7-0.9,3.6-1.4,5.6-1.4c1.4,0,2.8,0.2,4.1,0.5c1.2,0.3,2.4,0.8,3.5,1.4l0.5,5.1l-3.3,0.4l-0.5-3.3c-1.3-0.6-2.7-0.9-4.1-0.9
		c-1,0-2,0.2-2.9,0.7c-0.8,0.5-1.2,1.3-1.2,2.3c0,0.9,0.5,1.7,1.3,2.1c1,0.5,2.1,0.8,3.2,0.9c1.3,0.2,2.6,0.5,3.8,0.8
		c1.2,0.3,2.3,0.9,3.2,1.7c0.9,1,1.4,2.4,1.3,3.7C433.8,45.2,432.7,47.1,431,48.2L431,48.2z"/>
	<path d="M174,22.4h-5.7v23.3h5.7c3.6,0,6.4-1,8.4-3s2.9-4.9,2.9-8.6c0-3.6-1-6.5-2.9-8.5C180.5,23.5,177.7,22.4,174,22.4z"/>
	<path d="M114.5,111V73.4h114.9V111H114.5z M146.1,100.7h-2v-6.8c0.1-1.5-0.5-3-1.6-4c-1-0.8-2.3-1.3-3.6-1.3
		c-2.2-0.1-4.2,1.2-4.9,3.3c-0.3-1-1-1.9-1.9-2.5c-0.9-0.5-1.9-0.8-3-0.8c-1.9-0.1-3.7,0.9-4.6,2.6v-2.2h-6.3v3.3h2v8.5h-2v3.2h9.1
		v-3.2h-2.9v-5.2c0-0.9,0.2-1.8,0.7-2.6c0.5-0.7,1.3-1.1,2.2-1c1.7,0,2.6,1.2,2.6,3.6v8.4h6.3v-3.2h-2v-5.2c0-0.9,0.2-1.8,0.7-2.6
		c0.5-0.7,1.3-1.1,2.2-1c1.8,0,2.6,1.2,2.6,3.6v8.4h6.3V100.7z M156,88.6c-2.7,0-4.7,0.8-6,2.4c-1.3,1.6-2.1,3.6-2,5.7
		c-0.1,2.1,0.7,4.2,2.2,5.6c1.6,1.4,3.6,2.1,5.6,2c2.2,0.1,4.3-0.7,5.9-2.1c1.6-1.5,2.4-3.5,2.3-5.7c0-2-0.7-4-2-5.5
		C160.7,89.4,158.6,88.6,156,88.6L156,88.6z M155.9,100.9c-1,0-2-0.5-2.6-1.3c-0.6-1-0.9-2.1-0.9-3.3c-0.1-1.2,0.3-2.3,1-3.3
		c0.6-0.8,1.6-1.2,2.6-1.2c1,0,1.9,0.4,2.6,1.1c0.8,0.9,1.2,2.1,1.1,3.3c0.1,1.2-0.3,2.4-1,3.4C157.9,100.5,156.9,101,155.9,100.9z
		 M180.9,98.6l-3.4-0.3l-0.7,2.3h-4.9l8.3-9.5l-0.3-2.2h-13.2l-0.5,5.2l3.2,0.3l0.7-2.4h4.6l-8.2,9.5l0.4,2.3h13.1L180.9,98.6z
		 M188.5,88.9H184v5.4h4.5V88.9z M188.5,98.5H184v5.4h4.5V98.5z M202,81h-4.2l-6.5,22.9h4.2L202,81z M210.7,81h-4.2l-6.4,22.9h4.2
		L210.7,81z M225.7,103.5l-0.1-2.3c-0.2,0.1-0.4,0.1-0.6,0.1c-0.7,0-1-0.4-1-1.2v-6.5c0.1-1.5-0.6-3-1.8-3.8
		c-1.2-0.9-2.7-1.3-4.2-1.3c-1.1,0-2.1,0.1-3.2,0.3c-1.1,0.3-2.2,0.6-3.3,1.1l-0.6,3.5l3.4,0.4l0.5-1.7c0.3-0.2,0.7-0.3,1.1-0.4
		c0.4,0,0.8-0.1,1.2-0.1c1.2,0,1.9,0.4,2.1,1.1c0.2,0.7,0.3,1.5,0.3,2.3v0.5c-0.4-0.1-0.8-0.1-1.2-0.1c-0.4,0-0.8,0-1.2,0
		c-1.6,0-3.3,0.3-4.8,0.9c-1.5,0.6-2.3,2.1-2.2,3.6c-0.1,1.3,0.4,2.6,1.5,3.3c0.9,0.6,2,1,3.1,1c1.1,0.1,2.1-0.3,3-0.9
		c0.7-0.5,1.3-1.2,1.8-2c0,1.7,1.3,3,3,3c0.1,0,0.2,0,0.3,0C224,104.3,224.9,104,225.7,103.5L225.7,103.5z M216.4,101.2
		c-0.5,0-1-0.2-1.4-0.5c-0.3-0.3-0.4-0.8-0.4-1.2c-0.1-0.7,0.3-1.4,0.9-1.7c0.6-0.3,1.3-0.4,2-0.4c0.4,0,0.7,0,1.1,0.1l1.1,0.1
		c0,1-0.3,2-1.1,2.7C218,100.9,217.2,101.2,216.4,101.2L216.4,101.2z"/>
</g>
</svg>
